# xmcd
#
# Track frame offsets: 
#        150
#        26539
#        42646
#        54077
#        75644
#        103585
#        120320
#        150706
#        160494
#        176902
#        192159
#        223284
#        242798
#        261636
#        274014
#        290512
#        310481
#
# Disc length: 4413 seconds
#
# Revision: 4
# Processed by: cddbd v1.5.2PL0 Copyright (c) Steve Scherf et al.
# Submitted via: ExactAudioCopy v1.0b3
#
DISCID=fc113b11
DTITLE=Stan Getz - Jazz Samba-Jazz Samba Encore!
DYEAR=2012
DGENRE=Jazz
TTITLE0=Desafinado
TTITLE1=Samba Dees Days
TTITLE2=O Pato
TTITLE3=Samba Triste
TTITLE4=Samba De Una Nota Só
TTITLE5=É Luxo Só
TTITLE6=Baia
TTITLE7=Sambalero
TTITLE8=So Danço Samba
TTITLE9=Insesatez
TTITLE10=O Morro Nao Tem Vez
TTITLE11=Samba De Duas Notas
TTITLE12=Menina Flor
TTITLE13=Mania De Maria
TTITLE14=Saudade Vem Correndo
TTITLE15=Um Abraço No Getz
TTITLE16=Ebony Samba
EXTD=YEAR: 2012
EXTT0=
EXTT1=
EXTT2=
EXTT3=
EXTT4=
EXTT5=
EXTT6=
EXTT7=
EXTT8=
EXTT9=
EXTT10=
EXTT11=
EXTT12=
EXTT13=
EXTT14=
EXTT15=
EXTT16=
PLAYORDER=
